<svg xmlns="http://www.w3.org/2000/svg" viewBox="0 0 1283.84 127.01"><defs><style>.cls-1{fill:#fff;}</style></defs><g id="Layer_2" data-name="Layer 2"><g id="Layer_1-2" data-name="Layer 1"><polygon class="cls-1" points="12.88 0.71 57.69 110.61 102.31 0.71 115.19 0.71 62.98 125.95 52.22 125.95 0 0.71 12.88 0.71"/><rect class="cls-1" x="168.46" y="0.71" width="12.35" height="125.25"/><rect class="cls-1" x="575.24" y="0.71" width="12.35" height="125.25"/><path class="cls-1" d="M726.23,62.45a67.08,67.08,0,0,1,4-22.49,62.5,62.5,0,0,1,11.56-20,59.27,59.27,0,0,1,18.7-14.37A55.55,55.55,0,0,1,785.68,0q16.76,0,28.67,7.59A46.14,46.14,0,0,1,831.9,27.34l-9.7,6a37.31,37.31,0,0,0-7.32-10.41,41.21,41.21,0,0,0-9.26-6.88,39.6,39.6,0,0,0-10.24-3.79A49.23,49.23,0,0,0,785,11.11,41.88,41.88,0,0,0,765,15.7a45.94,45.94,0,0,0-14.55,12,52.31,52.31,0,0,0-8.91,16.67,60.55,60.55,0,0,0-3,18.78,55.74,55.74,0,0,0,3.62,19.94,56.38,56.38,0,0,0,9.88,16.84,47.26,47.26,0,0,0,14.82,11.65,40.67,40.67,0,0,0,18.61,4.32,46.3,46.3,0,0,0,10.84-1.33,41.74,41.74,0,0,0,10.77-4.23,45.51,45.51,0,0,0,9.61-7.23,37.37,37.37,0,0,0,7.41-10.5l10.23,5.29a38.23,38.23,0,0,1-8.47,12.44,55.67,55.67,0,0,1-12.17,9.09,60.89,60.89,0,0,1-14.2,5.64A58.83,58.83,0,0,1,784.8,127a50.12,50.12,0,0,1-23.64-5.64,62.18,62.18,0,0,1-18.52-14.73A68.29,68.29,0,0,1,730.56,86a66.52,66.52,0,0,1-4.33-23.55"/><path class="cls-1" d="M508.56,92.61a37.37,37.37,0,0,1-7.41,10.5,45.51,45.51,0,0,1-9.61,7.23,41.81,41.81,0,0,1-10.76,4.23,46.38,46.38,0,0,1-10.85,1.33,40.55,40.55,0,0,1-18.61-4.33A47.23,47.23,0,0,1,436.5,99.93a56.38,56.38,0,0,1-9.88-16.84c-.26-.68-.49-1.37-.72-2H413.34c.49,1.66,1,3.31,1.64,5a68.49,68.49,0,0,0,12.08,20.64,62.31,62.31,0,0,0,18.52,14.73A50.18,50.18,0,0,0,469.22,127,58.83,58.83,0,0,0,484,125.07a60.48,60.48,0,0,0,14.2-5.65,55.08,55.08,0,0,0,12.17-9.08,38.23,38.23,0,0,0,8.47-12.44Z"/><path class="cls-1" d="M423.13,66.79c-.07-1.2-.12-2.41-.12-3.64a60.65,60.65,0,0,1,3-18.79,52.37,52.37,0,0,1,8.91-16.66,45.87,45.87,0,0,1,14.56-12,41.84,41.84,0,0,1,19.93-4.59,49.39,49.39,0,0,1,10.41,1.15A39.67,39.67,0,0,1,490,16.05a41,41,0,0,1,9.26,6.88,37.31,37.31,0,0,1,7.32,10.41l9.7-6A46.08,46.08,0,0,0,498.77,7.59Q486.86,0,470.1,0a55.55,55.55,0,0,0-25.22,5.56,59.24,59.24,0,0,0-18.7,14.37,62.29,62.29,0,0,0-11.55,20,66.83,66.83,0,0,0-4,22.49c0,1.45.06,2.9.16,4.34Z"/><path class="cls-1" d="M1063.79,115.1a33.26,33.26,0,0,1-11.21-3.79,35.32,35.32,0,0,1-12.44-11.64,48.18,48.18,0,0,1-6.61-16.58,94,94,0,0,1-2-19.23V.71h-12.17V63.86a101.82,101.82,0,0,0,2.65,23.28,57.43,57.43,0,0,0,8.82,20.11,45.44,45.44,0,0,0,16.32,14.2,46.85,46.85,0,0,0,16.59,4.89Z"/><path class="cls-1" d="M1112.55.71V63.86a96.42,96.42,0,0,1-1.85,18.87,47.86,47.86,0,0,1-6.52,16.67,35.65,35.65,0,0,1-12.53,11.82,35.05,35.05,0,0,1-13.61,4.17v11.2a49.58,49.58,0,0,0,18.64-4.87A45,45,0,0,0,1113,108a57.27,57.27,0,0,0,9.08-20,99.81,99.81,0,0,0,2.82-24.08V.71Z"/><rect class="cls-1" x="890.82" y="0.71" width="12.35" height="100.07"/><polygon class="cls-1" points="961.16 115.02 961.16 115.02 890.82 115.02 890.82 125.95 975.49 125.95 975.49 115.02 961.16 115.02"/><path class="cls-1" d="M1277.58,73.56a31.35,31.35,0,0,0-17-11.82A29.34,29.34,0,0,0,1273.78,50a32.79,32.79,0,0,0,4.77-17.37,34.47,34.47,0,0,0-2-11.56,33.75,33.75,0,0,0-5.74-10.23,29.3,29.3,0,0,0-9-7.32A24.75,24.75,0,0,0,1250,.71h-60.33V126h59.09a38.38,38.38,0,0,0,13.59-2.38,34.26,34.26,0,0,0,11.11-6.7,32.75,32.75,0,0,0,7.59-10.23,29.72,29.72,0,0,0,2.82-13,33.41,33.41,0,0,0-6.26-20.11m-7.85,26.9a24.45,24.45,0,0,1-4.85,7.59,23.79,23.79,0,0,1-7.24,5.2,20.64,20.64,0,0,1-8.91,1.94H1202v-4h-.07V24.86h.07V11.47h44.1a17.93,17.93,0,0,1,8.11,1.85,21,21,0,0,1,6.44,4.94,22.24,22.24,0,0,1,4.24,7.32,27,27,0,0,1,1.49,9,24.13,24.13,0,0,1-1.58,8.73,23.76,23.76,0,0,1-4.41,7.32,21.81,21.81,0,0,1-6.79,5.11,19.16,19.16,0,0,1-8.56,1.94h-28.87V67.74H1250a18.58,18.58,0,0,1,8.56,2,23.09,23.09,0,0,1,11.37,12.88,25.58,25.58,0,0,1,1.59,8.9,23.47,23.47,0,0,1-1.76,8.91"/><polygon class="cls-1" points="339.92 0.88 339.92 104.96 304.94 60.98 304.94 80.14 341.51 125.95 352.27 125.95 352.27 0.88 339.92 0.88"/><polygon class="cls-1" points="290.7 43.06 257.01 0.71 247.49 0.71 247.49 125.95 259.84 125.95 259.84 23.64 290.7 62.3 290.7 43.06"/></g></g></svg>